<?xml version="1.0" encoding="UTF-8" standalone="no"?>
<!-- Created with Inkscape (http://www.inkscape.org/) -->

<svg
   xmlns:dc="http://purl.org/dc/elements/1.1/"
   xmlns:cc="http://creativecommons.org/ns#"
   xmlns:rdf="http://www.w3.org/1999/02/22-rdf-syntax-ns#"
   xmlns:svg="http://www.w3.org/2000/svg"
   xmlns="http://www.w3.org/2000/svg"
   xmlns:sodipodi="http://sodipodi.sourceforge.net/DTD/sodipodi-0.dtd"
   xmlns:inkscape="http://www.inkscape.org/namespaces/inkscape"
   width="210mm"
   height="297mm"
   viewBox="0 0 210 297"
   version="1.1"
   id="svg8"
   inkscape:version="0.92.4 (unknown)"
   sodipodi:docname="eventloop.svg">
  <defs
     id="defs2" />
  <sodipodi:namedview
     id="base"
     pagecolor="#ffffff"
     bordercolor="#666666"
     borderopacity="1.0"
     inkscape:pageopacity="0.0"
     inkscape:pageshadow="2"
     inkscape:zoom="0.98994949"
     inkscape:cx="440.59086"
     inkscape:cy="557.41172"
     inkscape:document-units="mm"
     inkscape:current-layer="layer1"
     showgrid="true"
     inkscape:window-width="1600"
     inkscape:window-height="836"
     inkscape:window-x="0"
     inkscape:window-y="27"
     inkscape:window-maximized="1">
    <inkscape:grid
       type="xygrid"
       id="grid3713" />
  </sodipodi:namedview>
  <metadata
     id="metadata5">
    <rdf:RDF>
      <cc:Work
         rdf:about="">
        <dc:format>image/svg+xml</dc:format>
        <dc:type
           rdf:resource="http://purl.org/dc/dcmitype/StillImage" />
        <dc:title></dc:title>
      </cc:Work>
    </rdf:RDF>
  </metadata>
  <g
     inkscape:label="Layer 1"
     inkscape:groupmode="layer"
     id="layer1">
    <path
       sodipodi:type="spiral"
       style="fill:none;fill-rule:evenodd;stroke:#000000;stroke-width:0.26458332"
       id="path3715"
       sodipodi:cx="68.791664"
       sodipodi:cy="101.20833"
       sodipodi:expansion="1"
       sodipodi:revolution="3"
       sodipodi:radius="38.158749"
       sodipodi:argument="-18.261553"
       sodipodi:t0="0"
       d="m 68.791664,101.20833 c 1.591894,1.06126 -0.645178,2.66943 -1.76389,2.64583 -3.031641,-0.0639 -4.241883,-3.68867 -3.527774,-6.173612 1.277371,-4.444971 6.592198,-5.998732 10.583334,-4.409717 5.857154,2.331944 7.797592,9.531479 5.291659,14.993059 -3.340014,7.27943 -12.482967,9.61375 -19.402779,6.1736 -8.707878,-4.32907 -11.438728,-15.440165 -7.055544,-23.812502 5.308624,-10.140023 18.400554,-13.268795 28.222225,-7.937486 11.5745,6.282764 15.102052,21.362928 8.819427,32.631948 -7.253538,13.01053 -24.326625,16.93744 -37.041669,9.70137 C 38.469012,116.79874 34.14234,97.729563 42.333341,83.569427 51.522407,67.683894 72.589908,62.957156 88.194455,72.104173 105.51846,82.259096 110.6455,105.32656 100.54165,122.37501" />
  </g>
</svg>
